@startuml
title WSM CBL DataBase
hide circle
skinparam orientation portrait
skinparam linetype ortho

package Config #00c49a
{
    entity User
    {
        * userId : uuid <<PK>>
        * roleId: integer <<FK>>
        --
        * name : varchar(50)
        secondName : varchar(50)
        * surname : varchar(50)
        secondName : varchar (50)
        * userName : varchar(50)
        * password : varchar(100)
        email : varchar(100)
        * userState : boolean
        * createdAt: timestamp with time zone
        * updatedAt: timestamp with time zone
    }

    entity User_Permission
    {
        * userId: uuid <<FK>>
        * permissionId: integer <<FK>>
    }

    entity Role
    {
        * roleId : integer <<PK>>
        --
        * name : varchar(50)
        description: varchar(150)
    }

    entity Permission
    {
        * permissionsId : integer <<PK>>
        --
        * name : varchar(50)
        * description: varchar(150)
    }

    entity Role_Permission
    {
        * roleId : integer <<FK>>
        --
        * permissionId : integer <<FK>>
    }
    User ||..{ Role
    User_Permission }..|| User
    User_Permission }..|| Permission
    Role_Permission }..|| Role
    Role_Permission }..|| Permission
}

package Secretary #f8e16c
{

    entity Degree
    {
        * degreeId : varchar(25) <<PK>>
        * schoolYear : varchar(15) <<FK>>
        --
        * label : varchar(25)
        tag: varchar(20)
        educationalLevel: varchar(50)
        quantity: integer
    }

    entity DegreeCatalog
    {
        * degreecatalogId: integer <<PK>>
        --
        * label: varchar(50)
        * tag: varchar(20)
        * educationalLevel: integer
    }

    entity Student
    {
        * studentId : varchar(20) <<PK>>
        * tutorid: varchar(15) <<FK>>
        --
        * name : varchar(50)
        secondName : varchar(50)
        * surname : varchar(50)
        secondSurname : varchar(50)
        * studentState : bool
        * sex : boolean
        * birthday : date
        diseases: varchar(200)
        religion: varchar(100)
        * address: varchar(500)
        minedid: varchar(30)
        profileimage: bytea
        accesstoken: varchar(20)
    }

    entity StudentFile
    {
        * fileId: integer <<PK>>
        * studentId: varchar(15) <<FK>>
        --
        transfersheet: boolean
        birthdocument: boolean
        parentidentifier: boolean
        updatedgradereport: boolean
        conductdocument: boolean
        financialsolvency: boolean
    }

    entity StudentMeasurements
    {
        * measurementId: integer <<PK>>
        * studentId: varchar(15) <<FK>>
        --
        * weight: double precision
        * height: integer
    }

    entity StudentParent {
        * parentId: varchar(15) <<PK>>
        * studentId: varchar(15) <<FK>>
        --
        sex: boolean
        * name: varchar(70)
        idcard: varchar(25)
        occupation: varchar(150)
    }

    entity StudentTutor {
        * tutorId: varchar(15) <<PK>>
        --
        * name: varchar(70)
        phone: varchar(100)
        email: varchar(100)
    }

    entity Schoolyear
    {
        * schoolyearId : varchar(20) <<PK>>
        --
        * label : varchar(100)
        * startDate : date
        * deadline : date
        isActive : bool
    }

    entity Schoolyear_Student
    {
        * schoolyearId : varchar(20) <<FK>>
        * studentId : varchar(20) <<FK>>
        --
    }

    entity Subject
    {
        * subjectId : varchar(15) <<PK>>
        * degreeId : varchar(15) <<Fk>>
        * areaId: integer <<FK>>
        --
        * name : varchar(100)
        isMandatory: boolean
        * semester: integer
        * initials: varchar(10)
        number: integer
    }

    entity SubjectArea
    {
        * areaId: integer <<PK>>
        --
        * name: varchar(500)
    }

    entity SubjectCatalog
    {
        * subjectCatalogId: integer <<PK>>
        * degreeCatalogId: integer <<PK>>
        * areaId: integer <<PK>>
        --
        * name: varchar(100)
        isMandatory: boolean
        * semester: integer
        * initials: varchar(10)
        number: integer
    }

    entity TariffCatalog {
        * tariffCatalogId: integer <<PK>>
        * typeId: integer <<FK>>
        --
        * concept: varchar(100)
        * amount: double precision
        * educationalLevel: smallint
        dueDate: date
    }

    entity ExchangeRate
    {
        * rateId: integer <<PK>>
        * schoolyear: varchar(20) <<FK>>
        --
        * value: double precision
    }

    entity Multimedia
    {
        * multimediaId: integer <<PK>>
        * schoolyear: varchar(15) <<FK>>
        --
        * type: integer
        value: varchar(1500)
    }

    Student ||..|| StudentTutor
    StudentParent }..|| Student
    StudentMeasurements ||..|| Student
    StudentFile ||..|| Student
    Subject }..|| Degree
    Subject ||..|| SubjectArea
    SubjectCatalog ||..|| SubjectArea
    SubjectCatalog ||..|| DegreeCatalog
    Schoolyear_Student }..|| Student
    Schoolyear_Student }..|| Schoolyear
    ExchangeRate ||..|| Schoolyear
    Multimedia ||..|| Schoolyear
    Degree ||..|| Schoolyear
}

package Accounting #LightBlue
{
    entity Cashier
    {
        * cashierId : varchar(15) <<PK>>
        * userId : uuid <<FK>>
    }

    entity DebtHistory
    {
        * studentId : varchar(20) <<FK>>
        * tariffId : integer <<FK>>
        --
        * schoolYear : varchar(6)
        * isPaid : boolean
        * debtBalance : double precision
        arrears : double precision
        * subAmount : double precision
        * amount : double precision
    }

    entity Discount
    {
        * discountId: smallint <<FK>>
        --
        * description: varchar(200)
        tag: varchar(50)
    }

    entity DiscountEducationalLevel {
        * del: integer <<PK>>
        * discountId: integer <<FK>>
        --
        educationalLevel: smallint
        amount: double precision
    }

    entity Student
    {
        * studentId : varchar(20) <<FK>>
        * discountel : integer <<FK>>
        --
        * educationalLevel: smallint
    }

    entity Tariff
    {
        * tariffId : integer <<PK>>
        * schoolYear : varchar(20) <<FK>>
        * typeId : numeric <<FK>>
        --
        * concept : varchar(200)
        * amount : double precision
        * educationalLevel: smallint
        dueDate : datetime
        late : boolean
    }

    entity TariffType
    {
        * typeId : integer <<PK>>
        --
        * description: varchar(50)
    }

    entity Transaction
    {
        * transactionId : varchar(20) <<PK>>
        * studentId : varchar(20) <<FK>>
        * cashierId : varchar(20) <<FK>>
        --
        * total : double precision
        * date : timestamp with time zone
        * number: integer
    }

    entity Transaction_Tariff
    {
        * transactionId : varchar(15) <<FK>>
        * tariffId : integer <<FK>>
        --
        * amount : double precision
    }

    Transaction }..|| Cashier
    Transaction }..|| Student
    DiscountEducationalLevel ||..|| Discount
    DebtHistory }..|| Tariff
    DebtHistory }..|| Student
    Tariff ||..{ TariffType
    Transaction_Tariff }..|| Tariff
    Transaction_Tariff }..|| Transaction
    Student ||..{ DiscountEducationalLevel
}

package Academy #fb8f67
{
    entity Enrollment
    {
        * enrollmentId : numeric <<PK>>
        * degreeId : varchar(25) <<FK>>
        * teacherId: varchar(15) <<FK>>
        --
        * label : varchar(20)
        * schoolYear : varchar(20)
        tag: varchar(20)
        section: varchar(50)
        capacity: smallint
        quantity: smallint
    }

    entity Grade
    {
        * gradeId: integer <<FK>>
        * subjectPartialId : varchar(20) <<FK>>
        * studentId : varchar(15) <<FK>>
        --
        grade: double precision
        conductGrade: double precision
        * label: varchar(10)
    }

    entity Partial {
        * partialId: integer <<PK>>
        * semesterId: integer <<FK>>
        --
        * partial: integer
        startdate: date
        * deadline: date
        isactive: boolean
        * label: varchar(20)
        * gradeRecordIsActive: boolean
    }

    entity Semester {
        * semesterId: integer <<PK>>
        * schoolyear: varchar(20) <<FK>>
        --
        * semester: integer
        * deadline: date
        * isactive: boolean
        * label: varchar(30)
    }

    entity Student
    {
        * studentId : varchar(15) <<FK>>
        * enrollmentId : varchar(15) <<FK>>
        * schoolYear : varchar(20) <<FK>>
        --
        isApproved: boolean
        isRepeating: boolean
        * createdAt: timestamp with time zone
    }

    entity Subject
    {
        * subjectId : varchar(15) <<PK>>
        --
        * teacherId : varchar(15) <<FK>>
        * enrollmentId : varchar(20) <<FK>>
    }

    entity Subject_Partial {
        * subjectPartialId: integer <<PK>>
        --
        * subjectId: varchar(15)
        * partialId: smallint
        * enrollmentId: varchar(15)
        * teacherId: varchar(15)
    }

    entity Teacher
    {
        * teacherId : varchar(15) <<PK>>
        * userId : uuid <<FK>>
        --
        * isGuide: boolean
    }

    Teacher ||.left.|| Enrollment
    Enrollment ||.left.{ Subject
    Grade ||..{ Student
    Grade ||..{ Subject_Partial
    Student ||..{ Enrollment
    Subject ||..|| Teacher
    Subject_Partial ||..|| Subject
    Subject_Partial ||..|| Partial
    Partial ||..|| Semester
}

Secretary.Student ||..{ Academy.Student
Secretary.Student ||..|| Accounting.Student
Secretary.Subject ||..{ Academy.Subject
Secretary.Degree ||..{ Academy.Enrollment
Academy.Semester ||..{ Secretary.Schoolyear
Academy.Student ||..{ Secretary.Schoolyear
User ||..|| Cashier
User ||..|| Teacher
TariffCatalog ||..{ TariffType
Accounting.Tariff ||..{ Schoolyear

@enduml