@startuml
'skinparam BackgroundColor transparent
hide circle
hide empty methods

Views ..> Models
Controllers ..> Models
Views ..> Controllers

package Models
{
    Management ..> Accounting
    Management ..> Secretary
    Secretary ..> Academy
    Accounting ..> Academy
}

'####   ###
newpage
object Views{
    class CollectTariffView <<View>>
    class EnrollStudentView <<View>>
    class ViewGradeOnlineView <<View>>
    class AddGradeStudentView <<View>>

    class DegreeView <<View>>
    class DegreesView <<View>>
    class SubjectView <<View>>
    class SubjectsView <<View>>
    class TariffView <<View>>
    class FinishTariffView <<View>>
    class EnrollmentView <<View>>
    class EnrollmentsView <<View>>

    class SchoolyearView <<View>>
    class EvangelizedStudentsView <<View>>

    class PdfViewerView <<View>>
    class HomeView <<View>>

    class StudentProfileView <<View>>
    class StudentProfilesView <<View>>
    class TeacherView <<View>>
    class PrincipalView <<View>>
    class DeputyPrincipalView <<View>>
    class SecretaryView <<View>>
    class CashierView <<View>>
    class AdministratorView <<View>>
    class PastorView <<View>>

    class View <<View>>
    class LoginView <<View>>
    class RegisterView <<View>>
}


'####   ###
newpage
object Controllers{
    class DocumentMaker
    class EnrollStudentController <<Controller>>
    class CollectTariffController <<Controller>>
    class CreateOfficialEnrollmentController <<Controller>>
    class MoveTeacherGuideFromEnrollmentController <<Controller>>
    class PrintingReceiptsController <<Controller>>
    class PrintReportCardController
    class LogoutController <<Controller>>

    class CreteStudentProfileController <<Controller>>
    class PayTariffController <<Controller>>
    class LoginController <<Controller>>
    class ViewGradeOnlineController <<Controller>>
    class MoveTeacherController <<Controller>>
    class AddStudentGradeController <<Controller>>
}


'######---######
newpage
class Models.StudentEntity <<Model>>
'class Models.SessionEntity <<Model>>
'class Models.AdministratorEntity <<Model>>

object Models.Academy{
    class GradeEntity <<Model>>
    class StudentEntity <<Model>>
    class TeacherEntity <<Model>>
    class SubjectEntity <<Model>>
    class EnrollmentEntity <<Model>>
    class PartialEntity <<Model>>
    class SemesterEntity <<Model>>

    class SubjectEntities <<Model>>
    class StudentEntities <<Model>>
    class TeacherEntities <<Model>>
}

object Models.Secretary{
    class DegreeEntity <<Model>>
    class ReportEntity <<Model>>
    class StudentEntity <<Model>>
    class TeacherEntity <<Model>>
    class SecretaryEntity <<Model>>
    class EnrollmentEntity <<Model>>
    class SchoolyearEntity <<Model>>

    class DegreesEntities <<Model>>
    class StudentEntities <<Model>>
    class TeacherEntities <<Model>>
}

object Models.Management{
    class PastorEntity <<Model>>
    class ReportEntity <<Model>>
    class CalendarEntity <<Model>>
    class PrincipalEntity <<Model>>
    class DeputyPrincipalEntity <<Model>>
}
    
object Models.Accounting{
    class ReportEntity <<Model>>
    class StudentEntity <<Model>>
    class CashierEntity <<Model>>
    class TariffEntities <<Model>>
    class StudentEntities <<Model>>
    class TransactionEntity <<Model>>
    class AccountingBoxEntity <<Model>>
    class DebtHistoryEntity <<Model>>
}

'--- Relations ---

@enduml