@startuml
title Generic UseCase Analysis
scale 2

skinparam boundary {
    BackgroundColor LightBlue
    BorderColor DarkBlue
    BorderThickness 1.5
}

skinparam control {
    BackgroundColor #ff7276
    BorderColor DarkRed
    BorderThickness 1.5
}

skinparam entity {
    BackgroundColor LightGreen
    BorderColor DarkGreen
    BorderThickness 1.5
}

package analysis <<PlantUML>>{
    boundary xView
    control xController
    entity xEntity
    entity xEntities

    xView --> xController
    xController .-> xEntity
    xController ..> xEntities
}

package front <<Blazor>>{
    boundary xTemplate <<razor>>
    boundary xStyle <<CSS>>
    boundary xComponent <<razor>>
    control f.xController  as "xController" <<C#>>
    entity xDto <<C#>>
    entity xModel <<C#>>

    xComponent ..> xDto
    xComponent ..> xModel
    xComponent ..> f.xController
    f.xController ..> xDto
    f.xController ..> xModel

    xDto .left.> xModel
    xComponent ..> xTemplate
    xTemplate ..> xStyle
    xTemplate .right.> xModel
}

package back <<.net 8>>{
    control xAction
    control b.xController as "xController" <<C#>>

    entity b.xDto as "xDto" <<C#>>
    entity b.xEntity as "xEntity" <<C#>>
    entity xDao <<C#>>
    entity xService <<C#>>

    xAction ..> b.xController
    xAction .left.> b.xDto
    b.xController ..> b.xEntity
    b.xController ..> xDao
    b.xController .right.> xService
    xService ..> b.xEntity
    xService ..> xDao
    b.xDto ..> b.xEntity
    xDao .left.> b.xEntity
}
' Trace analysis-back
xAction .up.> xController : <<trace>>
b.xController .up.> xController : <<trace>>
b.xEntity .up.> xEntity : <<trace>>
xDao .up.> xEntities : <<trace>>


' Trace analysis-front
xComponent .up.> xView : <<trace>>
xTemplate .up.> xView : <<trace>>
xDto .up.> xEntity : <<trace>>
xModel .up.> xEntity : <<trace>>
f.xController .up.> xController : <<trace>>

@enduml